<?xml version="1.0" encoding="UTF-8"?>
<!-- Generator: Adobe Illustrator 19.2.0, SVG Export Plug-In . SVG Version: 6.00 Build 0)  -->
<svg enable-background="new 0 0 960 960" version="1.1" viewBox="0 0 960 960" xml:space="preserve" xmlns="http://www.w3.org/2000/svg">
<style type="text/css">
	.st0{fill:#35A83F;}
	.st1{fill:#02873E;}
	.st2{fill:#39B54A;}
	.st3{fill:#009245;}
	.st4{fill:#FFED6C;}
	.st5{fill:#FFD345;}
	.st6{fill:#FBB03B;}
</style>
<rect width="960" height="960" fill="#fff" stroke-width="1.9445"/>
	
		
			<rect class="st0" transform="matrix(.067229 -.9977 .9977 .067229 48.308 950.54)" x="387.5" y="181.1" width="290.1" height="536.7"/>
		<path class="st1" d="M791,382.7c-21.9-6.9-38.4-25.4-42.8-47.9L334,306.9c-7.4,21.7-26.1,37.8-48.8,41.7L274.4,510    c23.9,7.5,41.3,28.8,43.6,54.1l411.6,27.7c5.7-24.7,25.8-43.4,50.5-47.7L791,382.7z"/>
		
			<ellipse class="st0" transform="matrix(.067229 -.9977 .9977 .067229 48.265 950.53)" cx="532.5" cy="449.4" rx="113.9" ry="113.9"/>
		
			<path class="st1" d="m521.1 530.2 1.3-18.6c-13.1-1.5-25.5-5.8-32.7-10.6l7.4-22.5c7.9 5 19.2 9.9 31.9 10.8 11.1 0.8 19.1-3 19.6-10.9 0.5-7.4-5.4-12.5-19.6-18.4-20.4-8.4-34-19.2-32.8-38.1 1.2-17.2 14.2-29.9 35.4-32.6l1.3-18.6 19.2 1.3-1.2 17.2c13.1 1.5 21.7 4.8 27.9 8.4l-7.2 21.7c-4.9-2.5-13.6-7.6-27.7-8.5-12.7-0.9-17.2 4.3-17.5 9.8-0.4 6.4 6.1 11 22.3 18.4 22.7 9.8 31.4 21.2 30.2 38.7-1.2 17.4-14.5 31.4-37.2 33.8l-1.3 19.9-19.3-1.2z"/>
		
	
	
		
			<rect class="st2" transform="matrix(.9922 -.1244 .1244 .9922 -39.089 56.686)" x="166" y="196.3" width="536.7" height="290.1"/>
		<path class="st3" d="m675.3 226.5c-22.8-2.6-42.5-17.6-51.1-38.8l-411.9 51.6c-3.1 22.7-18.4 42.1-39.9 50.3l20.1 160.4c24.9 2.8 46 20.4 53.2 44.7l409.3-51.3c0.9-25.3 17-47.6 40.5-56.5l-20.2-160.4z"/>
		
			<ellipse class="st2" transform="matrix(.9922 -.1244 .1244 .9922 -39.084 56.678)" cx="434.3" cy="341.3" rx="113.9" ry="113.9"/>
		
			<path class="st3" d="m438.5 422.7-2.3-18.5c-13.1 1-26.2-0.9-34.1-4.2l3-23.5c8.7 3.4 20.7 6.1 33.3 4.5 11.1-1.4 18.1-6.6 17.1-14.4-0.9-7.4-7.7-11.3-22.7-14.3-21.7-4.4-37.1-12.3-39.4-31.2-2.1-17.1 8.2-32 28.5-38.7l-2.3-18.5 19-2.4 2.1 17.1c13.1-1 22.2 0.6 29 2.9l-2.9 22.7c-5.3-1.5-14.8-4.9-28.8-3.1-12.6 1.6-16 7.5-15.4 13 0.8 6.4 8.1 9.6 25.4 13.8 24.2 5.3 34.8 14.8 37 32.3 2.2 17.3-8.2 33.6-30.1 40.3l2.5 19.8-18.9 2.4z"/>
		
	
	
		
			<ellipse class="st4" transform="matrix(.9148 -.4039 .4039 .9148 -247.55 225.99)" cx="411.9" cy="699.8" rx="96.1" ry="96.1"/>
		
			<ellipse class="st5" transform="matrix(.9148 -.4039 .4039 .9148 -247.55 225.99)" cx="411.9" cy="699.8" rx="72.3" ry="72.3"/>
		<path class="st6" d="m353.8 734.5c-16.1-36.5 0.4-79.2 36.9-95.3 22.2-9.8 46.6-7.5 65.9 4-20.3-16-48.6-20.6-73.9-9.4-36.5 16.1-53 58.8-36.9 95.3 6.3 14.3 16.8 25.5 29.3 33-8.9-7.2-16.3-16.5-21.3-27.6z"/>
		
			<path class="st6" d="m431.2 746.8-4.3-9.8c-7.1 2.7-14.6 3.9-19.5 3.3l-2.2-13.5c5.4 0.5 12.5-0.1 19.2-3 5.9-2.6 8.9-6.7 7.1-10.8-1.7-3.9-6.1-4.9-14.9-4.2-12.7 1.2-22.5-0.7-27-10.7-4-9.1-0.8-19.1 9.3-26.1l-4.3-9.8 10.1-4.5 4 9.1c7.1-2.7 12.4-3.4 16.5-3.2l2.2 13c-3.2 0.1-9-0.2-16.4 3.1-6.7 3-7.6 6.8-6.3 9.7 1.5 3.4 6.1 4 16.3 3.4 14.2-1.1 21.7 2.4 25.8 11.7 4.1 9.2 1 19.9-10 27.3l4.7 10.5-10.3 4.5z"/>
		
		
			<path class="st4" d="m425.1 744.5-4.3-9.8c-7.1 2.7-14.6 3.9-19.5 3.3l-2.2-13.5c5.4 0.5 12.5-0.1 19.2-3 5.9-2.6 8.9-6.7 7.1-10.8-1.7-3.9-6.1-4.9-14.9-4.2-12.7 1.2-22.5-0.7-27-10.7-4-9.1-0.8-19.1 9.3-26.1l-4.3-9.8 10.1-4.5 4 9.1c7.1-2.7 12.4-3.4 16.5-3.2l2.2 13c-3.2 0.1-9-0.2-16.4 3.1-6.7 3-7.6 6.8-6.3 9.7 1.5 3.4 6.1 4 16.3 3.4 14.2-1.1 21.7 2.4 25.8 11.7 4.1 9.2 1 19.9-10 27.3l4.7 10.5-10.3 4.5z"/>
		
	
	
		<circle class="st4" cx="624.3" cy="580.7" r="96.1"/>
		<circle class="st5" cx="624.3" cy="580.7" r="72.3"/>
		<path class="st6" d="m557.2 588.9c0-39.9 32.4-72.3 72.3-72.3 24.2 0 45.6 12 58.7 30.3-12.1-22.9-36.2-38.5-63.8-38.5-39.9 0-72.3 32.4-72.3 72.3 0 15.7 5 30.2 13.5 42-5.4-10-8.4-21.5-8.4-33.8z"/>
		
			<path class="st6" d="m622.9 631.5v-10.7c-7.6-0.3-14.9-2.4-19.2-4.9l3.4-13.2c4.7 2.6 11.4 5 18.8 5 6.4 0 10.8-2.5 10.8-7 0-4.3-3.6-7-12-9.8-12.1-4.1-20.3-9.7-20.3-20.7 0-9.9 7-17.7 19.1-20.1v-10.7h11.1v9.9c7.6 0.3 12.7 1.9 16.4 3.7l-3.3 12.8c-2.9-1.2-8.1-3.8-16.3-3.8-7.3 0-9.7 3.2-9.7 6.3 0 3.7 4 6.1 13.6 9.7 13.4 4.7 18.9 11 18.9 21.1s-7.1 18.6-20.1 20.9v11.5h-11.2z"/>
		
		
			<path class="st4" d="m618.3 626.9v-10.7c-7.6-0.3-14.9-2.4-19.2-4.9l3.4-13.2c4.7 2.6 11.4 5 18.8 5 6.4 0 10.8-2.5 10.8-7 0-4.3-3.6-7-12-9.8-12.1-4.1-20.3-9.7-20.3-20.7 0-9.9 7-17.7 19.1-20.1v-10.7h11.1v9.9c7.6 0.3 12.7 1.9 16.4 3.7l-3.3 12.8c-2.9-1.2-8.1-3.8-16.3-3.8-7.3 0-9.7 3.2-9.7 6.3 0 3.7 4 6.1 13.6 9.7 13.4 4.7 18.9 11 18.9 21.1s-7.1 18.6-20.1 20.9v11.5h-11.2z"/>
		
	

</svg>
